<svg xmlns="http://www.w3.org/2000/svg" viewBox="0 0 152.22 135.57"><defs><style>.cls-1{fill:#333;}</style></defs><title>Asset 5</title><g id="Layer_2" data-name="Layer 2"><g id="Layer_1-2" data-name="Layer 1"><path class="cls-1" d="M151.58,31.89,135,114.54c-2.33,11.62-13.63,21-25.24,21H24.44a28.42,28.42,0,0,1-11-2.12,24.08,24.08,0,0,1-11-9L66.05,67.5,36.7,32.26l10.78-9,38,45.64L26.74,121.54h83c4.89,0,10.48-4.74,11.48-9.75l16.58-82.66c.89-4.44.14-8.39-2.1-11.12s-5.46-4-9.64-4H40.77c-4.9,0-10.48,4.74-11.49,9.75l-15,74.67H0L15.53,21C17.86,9.41,29.16,0,40.77,0h85.32C143.7,0,155.12,14.28,151.58,31.89Zm-87.93,70,9.4,10.41,48-43.39-38-45.62-10.78,9,29.37,35.26Z"/></g></g></svg>