<svg xmlns="http://www.w3.org/2000/svg" viewBox="0 0 727.83 222.94"><defs><style>.cls-1{fill:#fff;}.cls-2{fill:#6057d5;}.cls-3{fill:#333;}.cls-4{fill:#fb3333;}</style></defs><title>Asset 6</title><g id="Layer_2" data-name="Layer 2"><g id="Layer_1-2" data-name="Layer 1"><polygon class="cls-1" points="85.03 0.77 85.03 0.77 59.67 14.95 51.63 19.44 51.63 19.44 51.63 19.44 51.63 19.44 85.03 0.77"/><polygon class="cls-1" points="120.9 103.31 113.75 94.76 113.75 94.76 112.77 94.76 112.59 93.37 112.59 93.37 50.68 19.33 53.97 40.51 111.32 109.1 120.9 103.31"/><polygon class="cls-1" points="85.03 0.77 85.03 0.77 85.03 0.77 85.03 0.77"/><polygon class="cls-1" points="53.56 144.05 45.49 148.93 45.39 149.65 54.66 144.05 53.56 144.05"/><path class="cls-1" d="M121.84,103.4l-7.23-8.64h-.86l7.15,8.55-9.58,5.79-12.5,7.57c.46-.08.94-.15,1.42-.2Z"/><polygon class="cls-1" points="157.27 87.15 175.5 108.96 175.6 109.56 176.44 109.06 157.55 86.47 157.55 86.47 157.27 87.15"/><path class="cls-1" d="M62.87,139.08l22-13.3,0,0q.39-.59.81-1.14L63,138.35h0Z"/><polygon class="cls-1" points="112.59 93.37 112.43 92.16 112.43 92.16 51.63 19.44 51.63 19.44 51.63 19.44 59.67 14.95 85.03 0.77 85.03 0.77 131.44 56.27 131.72 55.58 131.72 55.58 85.25 0 50.68 19.33 112.59 93.37"/><polygon class="cls-1" points="6.11 183.11 23.21 201.76 23.48 201.59 23.39 200.99 0.96 176.54 0.96 176.54 31.19 158.25 31.29 157.52 0 176.45 6.11 183.11"/><polygon class="cls-1" points="6.11 183.11 0 176.45 0 176.45 3.29 197.63 26.5 222.94 26.32 221.78 23.21 201.76 6.11 183.11"/><path class="cls-1" d="M176.44,109.06l-.84.5-12,7.28h4.5a12.23,12.23,0,0,1,5.36,1.17,9.46,9.46,0,0,1,3.87,3.3,8.61,8.61,0,0,1,1.43,4.91,12.25,12.25,0,0,1-1.15,5.31l2.14-1.29Z"/><path class="cls-1" d="M141.82,130l-20,12.1h0a22.75,22.75,0,0,1-3.65,9.49,21.34,21.34,0,0,1-18,9.39H96.6a18.22,18.22,0,0,1-4.92-.65h0l-68.2,41.26-.27.17,3.11,20,.18,1.16,111.78-67.63Z"/><path class="cls-1" d="M156.6,143.47h-3.68l-.45,3.26,5.24-3.18A7.62,7.62,0,0,0,156.6,143.47Z"/><path class="cls-1" d="M163.51,132.88a3.68,3.68,0,0,0,1.15-2.28l.06-1.21a2.21,2.21,0,0,0-.79-1.84,2.88,2.88,0,0,0-1.94-.76h-6.72l-1,7H161A3.42,3.42,0,0,0,163.51,132.88Z"/><polygon class="cls-1" points="256.62 51.25 258.58 57.46 263.08 62.84 269.15 52.86 241.12 19.33 244.41 40.51 253.39 51.25 253.39 51.25 256.62 51.25"/><polygon class="cls-1" points="311.34 103.31 276.63 61.8 270.18 71.33 270.18 71.33 301.76 109.1 311.34 103.31"/><rect class="cls-1" x="191.58" y="177.69"/><polygon class="cls-1" points="340.44 78.46 365.94 108.96 366.04 109.56 366.88 109.05 341.29 78.46 341.29 78.46 340.44 78.46"/><polygon class="cls-1" points="236.89 149.01 236.89 149.01 236.81 148.4 231.74 151.47 231.74 151.47 231.64 152.19 231.64 152.19 236.89 149.01"/><polygon class="cls-1" points="280.13 122.85 312.28 103.4 277.01 61.23 277.01 61.23 276.63 61.8 276.63 61.8 311.34 103.31 301.76 109.1 280.23 122.13 280.23 122.13 280.13 122.85"/><polygon class="cls-1" points="269.15 52.86 269.15 52.86 269.51 52.26 269.51 52.26 242.07 19.44 275.47 0.77 323.45 58.14 323.57 57.27 275.69 0 241.12 19.33 269.15 52.86"/><polygon class="cls-1" points="213.65 201.76 213.92 201.6 213.82 200.99 191.4 176.54 218.4 160.2 218.5 159.48 190.44 176.45 191.58 177.69 191.58 177.69 213.65 201.76"/><polygon class="cls-1" points="191.58 177.69 191.58 177.69 190.44 176.45 193.73 197.63 216.94 222.94 216.76 221.79 213.65 201.76 191.58 177.69"/><path class="cls-1" d="M315.61,161h-3.55a16.85,16.85,0,0,1-8.53-2.16,15.71,15.71,0,0,1-6.66-7.41l-83,50.19-.27.16,3.11,20,.18,1.15L320,160.58h0A23.38,23.38,0,0,1,315.61,161Z"/><path class="cls-1" d="M359.18,116.84h8.9l-1.2-7.79-.84.51-28.58,17.29h0a17.25,17.25,0,0,1,1,5.84,14.69,14.69,0,0,1-.09,1.68c-.07.53-.16,1.22-.29,2.07L337.3,142a22.65,22.65,0,0,1-3.68,9.64,16.72,16.72,0,0,1-1,1.35l23.45-14.19Z"/><path class="cls-1" d="M309.8,143.59l-.15,1.09a1.11,1.11,0,0,0-.07.44v.45A5.32,5.32,0,0,0,315.1,151h.32a7,7,0,0,0,5-1.77,7.52,7.52,0,0,0,2.25-4.57L324,135l-14.2,8.6Z"/><polygon class="cls-1" points="432.47 0.77 432.47 0.77 405.06 16.09 399.07 19.44 399.07 19.44 399.07 19.44 399.07 19.44 432.47 0.77"/><polygon class="cls-1" points="430.15 57.64 430.15 57.64 398.11 19.33 401.4 40.51 428.08 72.41 430.15 57.64"/><path class="cls-1" d="M468.34,103.31l-7-8.38h0a26.15,26.15,0,0,1-5.17.46,10.1,10.1,0,0,1-6-1.46c-1.36-1-2-2.55-2-4.75a23.24,23.24,0,0,1,.25-2.67,27,27,0,0,0,.26-3.1,6.86,6.86,0,0,0-1.05-4A4.16,4.16,0,0,0,444,77.89H440.3l-1.09,7.83,19.55,23.38Z"/><polygon class="cls-1" points="447.07 116.84 469.28 103.4 469.28 103.4 447.07 116.84 447.07 116.84 447.07 116.84"/><polygon class="cls-1" points="398.12 146.45 398.12 146.45 398.12 146.45 392.68 149.74 392.68 149.74 392.68 149.74 398.12 146.45"/><polygon class="cls-1" points="412.69 137.64 434.47 124.46 434.47 124.46 434.47 124.46 412.69 137.64 412.69 137.64 412.69 137.64"/><polygon class="cls-1" points="375.15 160.35 375.15 160.35 348.39 176.54 375.15 160.35 375.15 160.35"/><path class="cls-1" d="M447.07,116.84l22.21-13.44-7.23-8.64h0l-.72.17,7,8.38-9.58,5.79L446,116.84h1.09Z"/><polygon class="cls-1" points="412.69 137.64 434.47 124.46 434.57 123.74 434.57 123.74 412.79 136.91 412.79 136.91 412.69 137.64"/><polygon class="cls-1" points="505.91 88.6 522.94 108.96 523.03 109.56 523.88 109.06 506.19 87.9 506.19 87.9 505.91 88.6"/><polygon class="cls-1" points="398.22 145.73 393.05 148.86 392.68 149.74 398.12 146.45 398.22 145.73"/><polygon class="cls-1" points="430.15 57.64 430.27 56.76 430.27 56.76 399.07 19.44 399.07 19.44 399.07 19.44 405.06 16.09 432.47 0.77 432.47 0.77 483.86 62.23 483.7 61.01 483.7 61.01 432.68 0 398.11 19.33 430.15 57.64"/><polygon class="cls-1" points="360.87 191.1 370.64 201.76 370.92 201.59 370.82 200.99 348.39 176.54 375.15 160.35 374.06 160.35 347.44 176.45 360.87 191.1"/><polygon class="cls-1" points="370.64 201.76 360.87 191.1 347.44 176.45 347.44 176.45 347.44 176.45 347.44 176.45 350.73 197.63 373.93 222.94 370.64 201.76"/><polygon class="cls-1" points="506.33 133.01 508.11 136.56 510.89 116.91 500.83 123 506.33 133.01"/><polygon class="cls-1" points="483.98 133.19 483.98 133.19 456.29 149.94 456.29 149.94 462.06 149.94 462.06 160.35 439.09 160.35 370.92 201.59 370.64 201.76 370.64 201.76 373.93 222.94 480.39 158.53 483.98 133.19"/><path class="cls-1" d="M497,144.74a11.35,11.35,0,0,1-1.08-2l-.83-1.64-1.32,9.36,4.78-2.89Z"/><polygon class="cls-1" points="511.01 116.84 511.01 116.84 523.2 116.84 520.76 134.11 527.16 130.24 523.88 109.06 523.03 109.56 511.01 116.84"/><polygon class="cls-1" points="621.32 51.25 625.47 51.25 625.47 51.25 598.77 19.33 602.06 40.51 619.85 61.78 619.85 61.78 621.32 51.25"/><path class="cls-1" d="M639,83.41a6.86,6.86,0,0,0-1.05-4,4.17,4.17,0,0,0-3.65-1.49h-.94l5.58,6.67h0C638.94,84.11,639,83.73,639,83.41Z"/><path class="cls-1" d="M633.79,61.21h-.86l-.95,7h6.72a3.93,3.93,0,0,0,.86-.08h0Z"/><path class="cls-1" d="M669,103.31,652.44,83.5h0c0,.1,0,.2,0,.29a27.1,27.1,0,0,0-.25,3.23q0,3.93,2.41,4.57l-.38,2.6a19.82,19.82,0,0,1-6.25,1.17h0l11.49,13.74Z"/><path class="cls-1" d="M706.43,88.43,723.6,109l.09.6.85-.5L706.88,88q-.21.24-.45.48Z"/><path class="cls-1" d="M698.16,78.54h0l0-.21.09-.67-9.61-11.49-.12.88h0Z"/><path class="cls-1" d="M669.93,103.4,652.54,82.6h0s0,.07,0,.11c0,.29-.06.56-.09.79L669,103.31l-9.58,5.79-31.49,19.05-.1.72Z"/><polygon class="cls-1" points="602.04 144.48 602.04 144.48 613.27 137.69 613.37 136.96 602.15 143.75 602.15 143.75 602.04 144.48"/><polygon class="cls-1" points="625.47 51.25 626.32 51.25 626.32 51.25 599.73 19.44 633.13 0.77 677.04 53.28 677.16 52.4 633.34 0 598.77 19.33 625.47 51.25"/><path class="cls-1" d="M639.56,68.1a3.22,3.22,0,0,0,.69-.2h0l-5.6-6.69h-.86Z"/><path class="cls-1" d="M564.05,193.85l7.25,7.91.28-.17-.1-.6-22.43-24.45,39.7-24c-.06-.18-.11-.37-.16-.56L548.1,176.45Z"/><polygon class="cls-2" points="59.67 14.95 51.63 19.44 51.63 19.44 59.67 14.95"/><polygon class="cls-2" points="393.05 148.86 393.05 148.86 393.05 148.86 393.05 148.86"/><polygon class="cls-2" points="258.58 57.46 258.58 57.46 258.58 57.46 258.58 57.46"/><polygon class="cls-2" points="53.56 144.05 46.18 144.05 45.49 148.93 45.49 148.93 53.56 144.05 53.56 144.05"/><polygon class="cls-2" points="399.07 19.44 405.06 16.09 399.07 19.44 399.07 19.44 399.07 19.44"/><polygon class="cls-2" points="51.63 19.44 112.43 92.16 112.43 92.16 107.07 51.25 120.83 51.25 123.56 75.41 123.81 75.41 131.44 56.27 85.03 0.77 85.03 0.77 51.63 19.44 51.63 19.44"/><path class="cls-2" d="M103.45,126.1h-.32a7,7,0,0,0-5,1.77,7.58,7.58,0,0,0-2.25,4.57l-1.71,12.24a1.15,1.15,0,0,0-.06.44v.45a5.28,5.28,0,0,0,1.55,3.9,5.37,5.37,0,0,0,4,1.55H100a7,7,0,0,0,5-1.77,7.47,7.47,0,0,0,2.25-4.57l1.72-12.24a3.9,3.9,0,0,0,.06-.89,5.35,5.35,0,0,0-5.52-5.45Z"/><path class="cls-2" d="M88.07,158.82a15.45,15.45,0,0,1-5.9-5.89,16.52,16.52,0,0,1-2.12-8.31c0-.55,0-1.13.09-1.75s.15-1.27.26-2,.17-1.28.22-1.75.23-1.2.31-1.84.17-1.29.26-2a22.84,22.84,0,0,1,3.65-9.58h0l-22,13.3-.71,5h-7.5l-9.27,5.6-1.5,10.7h-13l.3-2.1h0L1,176.54H1L23.39,201l.09.6,68.2-41.26-.72-.22A15.26,15.26,0,0,1,88.07,158.82Z"/><path class="cls-2" d="M157.27,87.15l-3.14,7.61H139l-2.28-20.87h-.38l-8.25,20.87H114.61l7.23,8.64-21.6,13.07h0a25.34,25.34,0,0,1,2.64-.14h3.55a16.85,16.85,0,0,1,8.53,2.16,15.39,15.39,0,0,1,5.9,5.89,16.53,16.53,0,0,1,2.13,8.31,12.65,12.65,0,0,1-.1,1.68c-.06.53-.16,1.22-.28,2.07l-.69,4.94-.08.57a.77.77,0,0,1,0,.15l20-12.1.1-.72,1.74-12.44h19.92l12-7.28-.1-.6Z"/><polygon class="cls-2" points="6.11 183.11 23.21 201.76 26.32 221.78 23.21 201.76 6.11 183.11"/><polygon class="cls-2" points="191.58 177.69 213.65 201.76 216.76 221.79 216.76 221.79 213.65 201.76 191.58 177.69"/><path class="cls-2" d="M318.91,126.1h-.32a7,7,0,0,0-5,1.77,7.47,7.47,0,0,0-2.25,4.57l-1.46,10.42-.1.73L324,135l.11-.72h0l.25-1.83a3.69,3.69,0,0,0,.07-.89,5.37,5.37,0,0,0-5.52-5.45Z"/><path class="cls-2" d="M365.94,109l-25.5-30.5h-6.88l-2.28,16.3h-13l5.18-36.62L275.47.77l-33.4,18.67,27.44,32.82.62-1h13.64l-6.76,10,35.27,42.17-32.15,19.45h0l-5.3,37.5H261.51l3.93-27.91h-.25l-11.55,27.91H238.36L236.89,149l-5.25,3.18-1.15,8.16H218.38l0-.15-27,16.34L213.82,201l.1.61,83-50.19c-.08-.17-.15-.35-.22-.53h0a16.82,16.82,0,0,1-1.15-6.26c0-.55,0-1.13.1-1.75s.15-1.27.25-2,.18-1.28.22-1.75.24-1.2.32-1.84.17-1.29.25-2a23,23,0,0,1,3.68-9.61,21.24,21.24,0,0,1,7.58-6.88,21.51,21.51,0,0,1,10.44-2.54h3.55a16.87,16.87,0,0,1,8.53,2.16,15.45,15.45,0,0,1,5.9,5.89,16.41,16.41,0,0,1,.93,1.94l.21.53L366,109.56Z"/><polygon class="cls-2" points="360.87 191.1 370.64 201.76 370.64 201.76 360.87 191.1"/><path class="cls-2" d="M450.9,67.29A3.72,3.72,0,0,0,452,65l.06-1.2a2.19,2.19,0,0,0-.79-1.84,2.82,2.82,0,0,0-1.93-.76h-6.73l-.95,7h6.72A3.46,3.46,0,0,0,450.9,67.29Z"/><polygon class="cls-2" points="429.39 160.35 434.47 124.46 412.69 137.64 412.69 137.64 409.48 160.35 396.16 160.35 398.12 146.45 398.12 146.45 392.68 149.74 392.68 149.74 388.3 160.35 375.15 160.35 375.15 160.35 348.39 176.54 370.82 200.99 370.92 201.59 439.09 160.35 438 160.35 429.39 160.35"/><path class="cls-2" d="M505.91,88.6l-2.43,6.16H488.13l-4.27-32.53h0L432.47.77h0l-33.4,18.67h0l31.2,37.32h0l.77-5.51h24.42a12.23,12.23,0,0,1,5.36,1.17,9.46,9.46,0,0,1,3.87,3.3,8.61,8.61,0,0,1,1.43,4.91,12,12,0,0,1-1.27,5.55,11.56,11.56,0,0,1-3.39,4.1,11,11,0,0,1-4.66,2l-.07.31A7.22,7.22,0,0,1,461,75.76a10.4,10.4,0,0,1,1.36,5.49c0,.55,0,1-.06,1.46s-.08.78-.13,1.08a27.1,27.1,0,0,0-.25,3.23q0,3.93,2.41,4.57l-.38,2.6a15.86,15.86,0,0,1-1.84.57h0l7.23,8.64h0l-22.21,13.44h21.14l-2.66,10H447.22l-1,6.34H463.9l-1.33,9.7H444.93l-1,7h12.37L484,133.19l.1-.72h0l2.21-15.63h11.16l3.11,5.66.27.5,10.06-6.09v-.07H511l12-7.28-.09-.6Z"/><polygon class="cls-2" points="571.3 201.76 571.3 201.76 564.05 193.85 571.3 201.76"/><path class="cls-2" d="M642.32,65l.06-1.2a2.19,2.19,0,0,0-.79-1.84,2.83,2.83,0,0,0-1.94-.76h-5l5.6,6.69a3.14,3.14,0,0,0,.92-.61A3.68,3.68,0,0,0,642.32,65Z"/><path class="cls-2" d="M695.94,82.9a7.42,7.42,0,0,0,2.22-4.36l-9.61-11.49-2.47,17.62H691A6.94,6.94,0,0,0,695.94,82.9Z"/><path class="cls-2" d="M610.29,149.79a5.55,5.55,0,0,0,1.77-3.46l1.21-8.65-11.22,6.8-.26,1.85a2.24,2.24,0,0,0-.07.7A3.72,3.72,0,0,0,603,150a4.87,4.87,0,0,0,3.27,1.11A5.85,5.85,0,0,0,610.29,149.79Z"/><polygon class="cls-2" points="661.23 146.7 659.38 132.44 659.06 132.44 656.66 149.46 656.66 149.46 656.56 150.18 661.3 147.31 661.23 146.7 661.23 146.7"/><path class="cls-2" d="M705.05,120.84l18.64-11.28-.09-.6L706.43,88.43a20.47,20.47,0,0,1-5.06,3.82,21.93,21.93,0,0,1-10.6,2.51h-19.6L677,53.28,633.13.77l-33.4,18.67,26.59,31.81h19.42a12.23,12.23,0,0,1,5.36,1.17,9.46,9.46,0,0,1,3.87,3.3,8.61,8.61,0,0,1,1.43,4.91,12.15,12.15,0,0,1-1.27,5.55,11.56,11.56,0,0,1-3.39,4.1,11,11,0,0,1-4.67,2l-.06.31a7.22,7.22,0,0,1,4.22,3.14,10.4,10.4,0,0,1,1.36,5.49c0,.5,0,1-.05,1.35l17.39,20.8-42.1,25.47-2.45,17.65a15.88,15.88,0,0,1-5.9,10.62Q614.61,161,606.23,161H603.5c-4.69,0-8.42-1.1-11.16-3.3a10.47,10.47,0,0,1-3.59-5.16l-39.7,24L571.48,201l.1.6,71.74-43.4.1-.72,5.75-40.63H671l2.86,22.23.08.61.6-.37.36-.87h0l8.79-21.6h22l-.47,3.28Z"/><polygon class="cls-1" points="571.3 201.76 564.05 193.85 548.1 176.45 548.1 176.45 548.1 176.45 548.1 176.45 551.39 197.63 574.59 222.94 571.3 201.76"/><polygon class="cls-1" points="724.53 109.06 723.69 109.56 705.05 120.84 701.47 146.18 727.83 130.24 724.53 109.06"/><polygon class="cls-1" points="690.08 132.44 689.82 132.44 678.35 160.16 686.9 155 690.08 132.44"/><polygon class="cls-1" points="673.92 139.68 673.92 139.68 673.97 140.05 674.22 140.05 674.52 139.31 674.52 139.31 673.92 139.68"/><polygon class="cls-1" points="662.99 160.35 661.3 147.31 661.3 147.31 656.56 150.18 655.13 160.35 643.01 160.35 643.32 158.19 643.32 158.19 571.58 201.59 571.3 201.76 571.3 201.76 574.59 222.94 678.05 160.35 662.99 160.35"/><path class="cls-3" d="M34.76,87H48.59l1.52,7.74H63.94L55.56,51.25H39L18.4,94.76H31.15Zm10-22.39H45l1.84,13.19H39.14Z"/><polygon class="cls-3" points="157.55 86.47 157.55 86.47 172.08 51.25 159.58 51.25 150.01 75.41 149.75 75.41 147.09 51.25 133.45 51.25 131.72 55.58 131.72 55.58 157.55 86.47"/><polygon class="cls-3" points="114.61 94.76 112.43 92.16 112.43 92.16 112.43 92.16 114.61 94.76 114.61 94.76 114.61 94.76 114.61 94.76"/><polygon class="cls-3" points="123.81 75.41 123.56 75.41 120.83 51.25 107.07 51.25 112.43 92.16 112.43 92.16 114.61 94.76 128.12 94.76 136.37 73.89 136.75 73.89 139.03 94.76 154.13 94.76 157.27 87.15 131.44 56.27 123.81 75.41"/><path class="cls-3" d="M194.78,87h13.83l1.52,7.74H224l-8.37-43.51H199L178.42,94.76h12.75Zm10-22.39h.32l1.84,13.19h-7.74Z"/><polygon class="cls-3" points="263.08 62.84 261.44 65.52 261.13 65.52 258.58 57.46 253.39 51.25 253.39 51.25 241.66 51.25 252.31 78.14 249.96 94.76 263.22 94.76 265.57 78.14 270.18 71.33 270.18 71.33 263.08 62.84"/><polygon class="cls-3" points="270.13 51.25 269.51 52.26 269.51 52.26 277.01 61.23 277.01 61.23 283.77 51.25 270.13 51.25"/><polygon class="cls-3" points="341.29 78.46 341.29 78.46 349.54 78.46 350.94 68.69 334.95 68.69 335.97 61.59 353.16 61.59 355.88 51.25 324.43 51.25 323.57 57.27 341.29 78.46"/><polygon class="cls-3" points="318.27 94.76 331.28 94.76 333.56 78.46 340.44 78.46 323.45 58.14 318.27 94.76"/><path class="cls-3" d="M375.45,93.24A17,17,0,0,0,384,95.39h3.55a21.3,21.3,0,0,0,18-9.38,22.82,22.82,0,0,0,3.68-9.65l.76-5.51c.12-.85.22-1.54.28-2.06a12.91,12.91,0,0,0,.1-1.69,16.47,16.47,0,0,0-2.13-8.3,15.41,15.41,0,0,0-5.9-5.9,16.85,16.85,0,0,0-8.53-2.16h-3.55a21.47,21.47,0,0,0-10.43,2.54,21.08,21.08,0,0,0-7.58,6.88,22.88,22.88,0,0,0-3.68,9.61c-.09.68-.17,1.33-.25,2s-.19,1.25-.32,1.84-.12,1.05-.22,1.75-.19,1.35-.26,2-.09,1.2-.09,1.75a16.63,16.63,0,0,0,2.12,8.31A15.62,15.62,0,0,0,375.45,93.24Zm6.06-13.7a1.17,1.17,0,0,1,.06-.45l1.72-12.24a7.47,7.47,0,0,1,2.25-4.57,6.93,6.93,0,0,1,5-1.77h.31A5.35,5.35,0,0,1,396.35,66a3.9,3.9,0,0,1-.06.89l-1.72,12.24a7.44,7.44,0,0,1-2.25,4.57,7,7,0,0,1-5,1.78H387A5.32,5.32,0,0,1,381.51,80Z"/><polygon class="cls-3" points="424.96 94.76 437.96 94.76 439.21 85.72 428.08 72.41 424.96 94.76"/><polygon class="cls-3" points="430.27 56.76 430.27 56.76 430.27 56.76 430.27 56.76 462.05 94.76 462.05 94.76 462.06 94.76 430.27 56.76"/><path class="cls-3" d="M462.06,94.76h0a15.86,15.86,0,0,0,1.84-.57l.38-2.6q-2.41-.65-2.41-4.57a27.1,27.1,0,0,1,.25-3.23c.05-.3.09-.66.13-1.08s.06-.91.06-1.46A10.4,10.4,0,0,0,461,75.76a7.22,7.22,0,0,0-4.22-3.14l.07-.31a11,11,0,0,0,4.66-2,11.56,11.56,0,0,0,3.39-4.1,12,12,0,0,0,1.27-5.55,8.61,8.61,0,0,0-1.43-4.91,9.46,9.46,0,0,0-3.87-3.3,12.23,12.23,0,0,0-5.36-1.17H431l-.77,5.51ZM442.65,61.21h6.73a2.82,2.82,0,0,1,1.93.76,2.19,2.19,0,0,1,.79,1.84L452,65a3.72,3.72,0,0,1-1.14,2.28,3.46,3.46,0,0,1-2.48.89H441.7Z"/><polygon class="cls-3" points="512.1 73.89 514.38 94.76 529.48 94.76 547.43 51.25 534.94 51.25 525.36 75.41 525.11 75.41 522.44 51.25 508.81 51.25 499.16 75.41 498.91 75.41 496.18 51.25 482.42 51.25 483.7 61.01 483.7 61.01 506.19 87.9 506.19 87.9 511.72 73.89 512.1 73.89"/><polygon class="cls-3" points="488.13 94.76 503.48 94.76 505.91 88.6 483.86 62.23 488.13 94.76"/><path class="cls-3" d="M570.14,87H584l1.53,7.74h13.82l-8.37-43.51H574.39L553.77,94.76h12.75Zm10-22.39h.31l1.84,13.19h-7.74Z"/><polygon class="cls-3" points="619.85 61.78 619.85 61.78 615.23 94.76 628.24 94.76 630.58 77.89 633.32 77.89 619.85 61.78"/><path class="cls-3" d="M638.9,84.56h0c0,.56-.11,1.21-.2,2a23.24,23.24,0,0,0-.25,2.67c0,2.2.67,3.78,2,4.75a10.1,10.1,0,0,0,6,1.46c.51,0,1,0,1.49,0h0Z"/><path class="cls-3" d="M651.23,75.76A7.22,7.22,0,0,0,647,72.62l.06-.31a11,11,0,0,0,4.67-2,11.56,11.56,0,0,0,3.39-4.1,12.15,12.15,0,0,0,1.27-5.55A8.61,8.61,0,0,0,655,55.72a9.46,9.46,0,0,0-3.87-3.3,12.23,12.23,0,0,0-5.36-1.17H626.32l8.33,10h5a2.83,2.83,0,0,1,1.94.76,2.19,2.19,0,0,1,.79,1.84l-.06,1.2a3.68,3.68,0,0,1-1.15,2.28,3.14,3.14,0,0,1-.92.61h0l12.29,14.7h0c0-.4.05-.85.05-1.35A10.4,10.4,0,0,0,651.23,75.76Z"/><path class="cls-3" d="M689.38,61.14h4.88a5.32,5.32,0,0,1,4,1.59,5.42,5.42,0,0,1,1.55,3.93l-1.5,11L706.88,88a20.71,20.71,0,0,0,1.94-2.51,24.42,24.42,0,0,0,3.65-9.71l.82-5.45a18.44,18.44,0,0,0,.19-2.67,16.53,16.53,0,0,0-2.13-8.31,15.52,15.52,0,0,0-5.89-5.9,17,17,0,0,0-8.53-2.15h-19.6l-.17,1.15,11.51,13.77Z"/><path class="cls-3" d="M671.17,94.76h19.6a21.93,21.93,0,0,0,10.6-2.51,20.47,20.47,0,0,0,5.06-3.82h0l-8.27-9.89h0a7.42,7.42,0,0,1-2.22,4.36,6.94,6.94,0,0,1-5,1.77h-4.88l2.47-17.62h0L677,53.28Z"/><polygon class="cls-3" points="46.18 144.05 53.56 144.05 62.97 138.35 62.97 138.35 63.56 134.28 47.57 134.28 48.59 127.17 65.78 127.17 68.5 116.84 37.05 116.84 31.29 157.52 45.49 148.93 46.18 144.05"/><polygon class="cls-3" points="43.89 160.35 45.39 149.65 31.19 158.25 30.89 160.35 43.89 160.35"/><polygon class="cls-3" points="62.16 144.05 62.87 139.08 54.66 144.05 62.16 144.05"/><path class="cls-3" d="M92.45,118.87a21.26,21.26,0,0,0-6.77,5.74l13.14-7.94A20.23,20.23,0,0,0,92.45,118.87Z"/><path class="cls-3" d="M80.93,137.32c-.08.64-.18,1.25-.31,1.84s-.12,1.05-.22,1.75-.19,1.35-.26,2-.09,1.2-.09,1.75a16.52,16.52,0,0,0,2.12,8.31,15.45,15.45,0,0,0,5.9,5.89A15.26,15.26,0,0,0,91,160.11h0l31-18.73.69-4.94c.12-.85.22-1.54.28-2.07a12.65,12.65,0,0,0,.1-1.68,16.53,16.53,0,0,0-2.13-8.31,15.39,15.39,0,0,0-5.9-5.89,16.85,16.85,0,0,0-8.53-2.16h-3.55a25.34,25.34,0,0,0-2.64.14l-15.4,9.31a22.84,22.84,0,0,0-3.65,9.58C81.1,136,81,136.69,80.93,137.32Zm17.22-9.45a7,7,0,0,1,5-1.77h.32a5.35,5.35,0,0,1,5.52,5.45,3.9,3.9,0,0,1-.06.89l-1.72,12.24a7.47,7.47,0,0,1-2.25,4.57,7,7,0,0,1-5,1.77h-.31a5.37,5.37,0,0,1-4-1.55,5.28,5.28,0,0,1-1.55-3.9v-.45a1.15,1.15,0,0,1,.06-.44l1.71-12.24A7.58,7.58,0,0,1,98.15,127.87Z"/><path class="cls-3" d="M121.92,141.38h0L91,160.11l.72.22h0l30.14-18.23h0l0-.15Z"/><path class="cls-3" d="M160.25,145a6.84,6.84,0,0,1,1.05,4,27.13,27.13,0,0,1-.26,3.11,23.24,23.24,0,0,0-.25,2.67c0,2.19.67,3.78,2,4.75a10.18,10.18,0,0,0,6,1.46,21.62,21.62,0,0,0,7.74-1.2l.38-2.6q-2.42-.65-2.41-4.57a27.39,27.39,0,0,1,.25-3.24c0-.29.09-.65.13-1.07s.06-.91.06-1.46a10.4,10.4,0,0,0-1.36-5.49,7.22,7.22,0,0,0-4.22-3.14l.06-.32a10.68,10.68,0,0,0,4.66-2,11.45,11.45,0,0,0,3.4-4.09l.12-.24-19.87,12A3.59,3.59,0,0,1,160.25,145Z"/><polygon class="cls-3" points="137.57 160.35 150.57 160.35 152.47 146.73 138.28 155.31 137.57 160.35"/><polygon class="cls-3" points="141.92 129.28 162.48 116.84 162.48 116.84 143.66 116.84 141.92 129.28"/><polygon class="cls-3" points="141.92 129.28 141.92 129.28 141.82 130 163.58 116.84 163.58 116.84 162.48 116.84 141.92 129.28"/><polygon class="cls-3" points="231.74 151.47 231.74 151.47 234.42 132.44 234.74 132.44 236.81 148.4 280.23 122.13 280.23 122.13 280.98 116.84 259.03 116.84 249.58 140.05 249.33 140.05 246.35 116.84 224.53 116.84 218.5 159.48 231.74 151.47"/><polygon class="cls-3" points="236.89 149.01 236.89 149.01 238.36 160.35 253.64 160.35 265.19 132.44 265.44 132.44 261.51 160.35 274.83 160.35 280.13 122.85 236.89 149.01"/><polygon class="cls-3" points="230.49 160.35 231.64 152.19 231.64 152.19 218.4 160.2 218.38 160.35 230.49 160.35"/><path class="cls-3" d="M320,160.58h0a20.18,20.18,0,0,0,6-2.14,21.2,21.2,0,0,0,6.59-5.5Z"/><path class="cls-3" d="M330.42,118.49a16.87,16.87,0,0,0-8.53-2.16h-3.55a21.51,21.51,0,0,0-10.44,2.54,21.24,21.24,0,0,0-7.58,6.88,23,23,0,0,0-3.68,9.61c-.08.67-.17,1.33-.25,2s-.19,1.25-.32,1.84-.11,1.05-.22,1.75-.19,1.35-.25,2-.1,1.2-.1,1.75a16.82,16.82,0,0,0,1.15,6.26h0l13.25-8,1.46-10.42a7.47,7.47,0,0,1,2.25-4.57,7,7,0,0,1,5-1.77h.32a5.37,5.37,0,0,1,5.52,5.45,3.69,3.69,0,0,1-.07.89l-.25,1.83,13.14-8h0a16.41,16.41,0,0,0-.93-1.94A15.45,15.45,0,0,0,330.42,118.49Z"/><path class="cls-3" d="M324.11,134.27h0L324,135l13.46-8.14h0l-.21-.53Z"/><path class="cls-3" d="M309.9,142.86h0l-13.25,8c.07.18.14.36.22.53l12.93-7.82h0Z"/><polygon class="cls-3" points="399.84 132.44 400.09 132.44 398.22 145.73 412.79 136.91 412.79 136.91 415.63 116.84 393.69 116.84 384.24 140.05 383.98 140.05 381 116.84 368.08 116.84 370.17 130.24 356.08 138.75 353.03 160.35 365.15 160.35 369.08 132.44 369.39 132.44 373.01 160.35 374.06 160.35 393.05 148.86 399.84 132.44"/><polygon class="cls-3" points="396.16 160.35 409.48 160.35 412.69 137.64 398.12 146.45 396.16 160.35"/><polygon class="cls-3" points="388.3 160.35 392.68 149.74 375.15 160.35 388.3 160.35"/><polygon class="cls-3" points="445.98 116.84 445.98 116.84 435.55 116.84 434.57 123.74 434.57 123.74 445.98 116.84"/><polygon class="cls-3" points="429.39 160.35 438 160.35 455.2 149.94 455.19 149.94 443.92 149.94 444.94 142.91 462.57 142.91 463.9 133.2 446.27 133.2 447.22 126.86 465.55 126.86 468.21 116.84 447.07 116.84 434.47 124.46 429.39 160.35"/><polygon class="cls-3" points="438 160.35 438 160.35 439.09 160.35 456.29 149.94 456.29 149.94 455.2 149.94 438 160.35"/><polygon class="cls-3" points="505.63 160.35 517.05 160.35 520.76 134.11 498.56 147.54 505.63 160.35"/><polygon class="cls-3" points="480.14 160.35 492.38 160.35 493.78 150.43 480.39 158.53 480.14 160.35"/><polygon class="cls-3" points="500.56 122.5 500.56 122.5 497.45 116.84 486.29 116.84 484.08 132.47 500.56 122.5"/><polygon class="cls-3" points="484.08 132.47 484.08 132.47 483.98 133.19 483.98 133.19 500.83 123 500.56 122.5 484.08 132.47"/><polygon class="cls-3" points="510.89 116.91 511.01 116.84 511.01 116.84 510.9 116.84 510.89 116.91"/><polygon class="cls-3" points="558.47 160.35 563.16 127.3 574.2 127.3 575.65 116.84 540.39 116.84 538.93 127.3 549.97 127.3 545.27 160.35 558.47 160.35"/><polygon class="cls-3" points="629.5 116.84 616.18 116.84 613.37 136.96 627.93 128.15 629.5 116.84"/><path class="cls-3" d="M602.15,143.75h0l3.76-26.91H592.53l-4.13,29.68a14.61,14.61,0,0,0-.19,2.28,12.85,12.85,0,0,0,.38,3.16Z"/><path class="cls-3" d="M592.34,157.68c2.74,2.2,6.47,3.3,11.16,3.3h2.73q8.37,0,13.25-3.84a15.88,15.88,0,0,0,5.9-10.62l2.45-17.65-14.56,8.81-1.21,8.65a5.55,5.55,0,0,1-1.77,3.46,5.85,5.85,0,0,1-4,1.3A4.87,4.87,0,0,1,603,150a3.72,3.72,0,0,1-1.3-2.95,2.24,2.24,0,0,1,.07-.7l.26-1.85h0l-13.3,8A10.47,10.47,0,0,0,592.34,157.68Z"/><polygon class="cls-3" points="683.67 116.84 674.88 138.44 674.88 138.44 705.15 120.12 705.15 120.12 705.62 116.84 683.67 116.84"/><polygon class="cls-3" points="674.88 138.44 674.52 139.31 674.52 139.31 705.05 120.84 705.15 120.12 674.88 138.44"/><polygon class="cls-3" points="670.98 116.84 649.17 116.84 643.42 157.47 656.66 149.46 659.06 132.44 659.38 132.44 661.23 146.7 673.84 139.06 673.84 139.06 670.98 116.84"/><polygon class="cls-3" points="656.56 150.18 656.66 149.46 656.66 149.46 643.42 157.47 643.42 157.47 643.32 158.19 643.32 158.19 656.56 150.18"/><polygon class="cls-3" points="673.84 139.06 661.23 146.7 661.23 146.7 661.3 147.31 661.3 147.31 673.92 139.68 673.92 139.68 673.84 139.06"/><polygon class="cls-3" points="678.28 160.35 678.35 160.17 678.05 160.35 678.28 160.35"/><polygon class="cls-3" points="686.14 160.35 699.46 160.35 701.47 146.18 686.9 155 686.14 160.35"/><polygon class="cls-4" points="112.77 94.76 113.75 94.76 113.75 94.76 114.61 94.76 112.43 92.16 112.59 93.37 112.77 94.76"/><polygon class="cls-4" points="157.55 86.47 131.72 55.58 131.44 56.27 157.27 87.15 157.55 86.47"/><polygon class="cls-4" points="258.58 57.46 258.58 57.46 258.58 57.46 258.58 57.46"/><polygon class="cls-4" points="256.62 51.25 253.39 51.25 258.58 57.46 256.62 51.25"/><polygon class="cls-4" points="276.63 61.8 276.63 61.8 277.01 61.23 269.51 52.26 269.15 52.86 269.15 52.86 263.08 62.84 270.18 71.33 276.63 61.8"/><polygon class="cls-4" points="323.45 58.14 340.44 78.46 341.29 78.46 323.57 57.27 323.45 58.14"/><path class="cls-4" d="M440.3,77.89H444a4.16,4.16,0,0,1,3.65,1.49,6.86,6.86,0,0,1,1.05,4,27,27,0,0,1-.26,3.1,23.24,23.24,0,0,0-.25,2.67c0,2.2.67,3.78,2,4.75a10.1,10.1,0,0,0,6,1.46,26.15,26.15,0,0,0,5.17-.46h0l.72-.17-31.78-38-.12.88h0l-2.07,14.77,11.13,13.31Z"/><polygon class="cls-4" points="483.86 62.23 505.91 88.6 506.19 87.9 483.7 61.01 483.86 62.23 483.86 62.23"/><path class="cls-4" d="M647.93,95.36a19.82,19.82,0,0,0,6.25-1.17l.38-2.6q-2.41-.65-2.41-4.57a27.1,27.1,0,0,1,.25-3.23c0-.09,0-.19,0-.29h0c0-.23.06-.5.09-.79,0,0,0-.07,0-.11L640.25,67.9a3.22,3.22,0,0,1-.69.2h0a3.93,3.93,0,0,1-.86.08H632l.95-7h1.72l-8.33-10h-5l-1.47,10.53,13.47,16.11h.94a4.17,4.17,0,0,1,3.65,1.49,6.86,6.86,0,0,1,1.05,4c0,.32,0,.7-.06,1.15Z"/><path class="cls-4" d="M698.28,77.66h0l-.09.67,0,.21,8.27,9.89q.24-.24.45-.48Z"/><polygon class="cls-4" points="688.67 66.17 677.16 52.4 677.04 53.28 688.55 67.05 688.67 66.17"/><polygon class="cls-4" points="31.19 158.25 31.19 158.25 45.39 149.65 45.49 148.93 45.49 148.93 31.29 157.52 31.19 158.25"/><polygon class="cls-4" points="53.56 144.05 54.66 144.05 54.66 144.05 62.87 139.08 62.97 138.35 53.56 144.05 53.56 144.05"/><path class="cls-4" d="M100.24,116.47c-.48,0-1,.12-1.42.2l-13.14,7.94h0q-.42.56-.81,1.14l0,0h0l15.4-9.31Z"/><path class="cls-4" d="M96.6,161h3.55a21.34,21.34,0,0,0,18-9.39,22.75,22.75,0,0,0,3.65-9.49L91.68,160.33A18.22,18.22,0,0,0,96.6,161Z"/><path class="cls-4" d="M173.44,118a12.23,12.23,0,0,0-5.36-1.17h-4.5L141.82,130l-3.54,25.31h0l14.19-8.58.45-3.26h3.68a7.62,7.62,0,0,1,1.11.08h0l19.87-12h0a12.25,12.25,0,0,0,1.15-5.31,8.61,8.61,0,0,0-1.43-4.91A9.46,9.46,0,0,0,173.44,118Zm-8.78,12.59a3.68,3.68,0,0,1-1.15,2.28,3.42,3.42,0,0,1-2.47.89h-6.72l1-7H162a2.88,2.88,0,0,1,1.94.76,2.21,2.21,0,0,1,.79,1.84Z"/><polygon class="cls-4" points="236.89 149.01 280.13 122.85 280.13 122.85 280.23 122.13 236.81 148.4 236.89 149.01"/><polygon class="cls-4" points="218.5 159.48 218.4 160.2 231.64 152.19 231.74 151.47 218.5 159.48 218.5 159.48"/><path class="cls-4" d="M324,135l-1.35,9.69a7.52,7.52,0,0,1-2.25,4.57,7,7,0,0,1-5,1.77h-.32a5.32,5.32,0,0,1-5.52-5.45v-.45a1.11,1.11,0,0,1,.07-.44l.15-1.09-12.93,7.82a15.71,15.71,0,0,0,6.66,7.41,16.85,16.85,0,0,0,8.53,2.16h3.55a23.38,23.38,0,0,0,4.4-.4l12.62-7.64h0a16.72,16.72,0,0,0,1-1.35A22.65,22.65,0,0,0,337.3,142l.76-5.51c.13-.85.22-1.54.29-2.07a14.69,14.69,0,0,0,.09-1.68,17.25,17.25,0,0,0-1-5.84Z"/><polygon class="cls-4" points="359.18 116.84 356.08 138.75 370.17 130.24 368.08 116.84 359.18 116.84"/><polygon class="cls-4" points="393.05 148.86 393.05 148.86 393.05 148.86 393.05 148.86"/><polygon class="cls-4" points="375.15 160.35 375.15 160.35 375.15 160.35 375.15 160.35 392.68 149.74 392.68 149.74 392.68 149.74 392.68 149.74 393.05 148.86 374.06 160.35 375.15 160.35"/><polygon class="cls-4" points="398.12 146.45 398.12 146.45 398.12 146.45 412.69 137.64 412.69 137.64 412.69 137.64 412.69 137.64 412.79 136.91 398.22 145.73 398.12 146.45"/><polygon class="cls-4" points="447.07 116.84 447.07 116.84 447.07 116.84 445.98 116.84 434.57 123.74 434.47 124.46 434.47 124.46 434.47 124.46 447.07 116.84 447.07 116.84"/><polygon class="cls-4" points="439.09 160.35 462.06 160.35 462.06 149.94 456.29 149.94 439.09 160.35"/><path class="cls-4" d="M510.89,116.91l-2.78,19.65L506.33,133l-5.5-10L484,133.19l-3.59,25.34h0l13.39-8.1,1.32-9.37.83,1.65a11.35,11.35,0,0,0,1.08,2l1.55,2.8,22.2-13.43h0l2.44-17.27H511Z"/><polygon class="cls-4" points="613.27 137.69 627.83 128.87 627.93 128.15 613.37 136.96 613.27 137.69"/><path class="cls-4" d="M588.59,152c0,.19.1.38.16.56l13.3-8,.1-.73L588.59,152Z"/><polygon class="cls-4" points="643.01 160.35 655.13 160.35 656.56 150.18 643.32 158.19 643.01 160.35"/><polygon class="cls-4" points="674.22 140.05 673.97 140.05 673.92 139.68 661.3 147.31 662.99 160.35 678.05 160.35 678.05 160.35 678.35 160.17 678.35 160.16 689.82 132.44 690.08 132.44 686.9 155 701.47 146.18 701.47 146.18 705.05 120.84 674.52 139.31 674.22 140.05"/></g></g></svg>