<svg xmlns="http://www.w3.org/2000/svg" viewBox="0 0 382.74 100.87"><defs><style>.cls-1{fill:#fff;}</style></defs><title>Asset 4</title><g id="Layer_2" data-name="Layer 2"><g id="Layer_1-2" data-name="Layer 1"><path class="cls-1" d="M112.78,23.73,100.45,85.22c-1.73,8.64-10.14,15.65-18.78,15.65H18.19A21.12,21.12,0,0,1,10,99.29a17.82,17.82,0,0,1-8.15-6.7L49.14,50.22,27.31,24l8-6.68,28.28,34L19.9,90.43H81.67c3.64,0,7.8-3.53,8.55-7.26l12.33-61.5c.66-3.3.11-6.24-1.56-8.27s-4.07-3-7.18-3H30.33c-3.64,0-7.8,3.53-8.54,7.26L10.65,73.25H0L11.55,15.64C13.28,7,21.69,0,30.33,0H93.81C106.92,0,115.41,10.62,112.78,23.73ZM47.35,75.8l7,7.75L90.09,51.27,61.82,17.32,53.8,24,75.65,50.24Z"/><path class="cls-1" d="M120.19,46.7l7.27-36.24h22.69l-1.35,6.65H133.64L132,25.05h13.34L144,31.7H130.68l-3,15Z"/><path class="cls-1" d="M161.63,47.33a14.41,14.41,0,0,1-5-.86,11.16,11.16,0,0,1-4.16-2.65,12.81,12.81,0,0,1-2.85-4.57,18.49,18.49,0,0,1-1.07-6.62A27.59,27.59,0,0,1,150,23.8a23.78,23.78,0,0,1,3.9-7.27,18.44,18.44,0,0,1,5.92-4.9,15.82,15.82,0,0,1,7.48-1.79,14.39,14.39,0,0,1,5,.85,11.29,11.29,0,0,1,4.16,2.65,13,13,0,0,1,2.85,4.57,18.49,18.49,0,0,1,1.07,6.62,27.55,27.55,0,0,1-1.4,8.83,23.78,23.78,0,0,1-3.9,7.27,18.47,18.47,0,0,1-5.92,4.91A15.9,15.9,0,0,1,161.63,47.33Zm.51-6.65a7.91,7.91,0,0,0,6-2.45,13.65,13.65,0,0,0,3.22-6.88l1.09-5.48a14.06,14.06,0,0,0,.2-1.49c0-.43.06-.84.06-1.22q0-6.68-5.92-6.68a7.91,7.91,0,0,0-6,2.45,13.6,13.6,0,0,0-3.21,6.89l-1.1,5.47a12.36,12.36,0,0,0-.2,1.46c0,.46-.05.87-.05,1.26Q156.23,40.69,162.14,40.68Z"/><path class="cls-1" d="M187.28,46.7h-7.53L187,10.46h14.12c3.46,0,6.16.81,8.08,2.44a8.56,8.56,0,0,1,2.88,6.91,14.06,14.06,0,0,1-.57,4,12.87,12.87,0,0,1-1.72,3.63,12.5,12.5,0,0,1-6.59,5l4.36,14.33h-8.05L196,33.25h-6ZM199,26.82a5,5,0,0,0,3-.94A4.56,4.56,0,0,0,203.74,23c.17-.8.31-1.45.41-2a5.76,5.76,0,0,0,.16-1.17,2.71,2.71,0,0,0-.81-2,3.39,3.39,0,0,0-2.51-.8H193.2l-1.92,9.71Z"/><path class="cls-1" d="M215.73,46.7,215,10.46h7.42L222.22,25l-.57,14.28h.52l5-13.35,6.54-15.42H242l.36,14.64L242,39.75h.52l4.52-13,6.12-16.3h7.58L245.64,46.7h-8.72l-.42-15.11V18.87H236L231.42,30.5l-6.76,16.2Z"/><path class="cls-1" d="M274,46.7l-.84-8.82H261.58l-4.25,8.82h-8l18.64-36.24h9.61l4.1,36.24Zm-2.44-29.44h-.42l-6.6,14.33h8.11Z"/><path class="cls-1" d="M291.86,46.7h-7.53l7.27-36.24h14.12c3.46,0,6.16.81,8.08,2.44a8.56,8.56,0,0,1,2.88,6.91,14.06,14.06,0,0,1-.57,4,12.69,12.69,0,0,1-8.31,8.59l4.36,14.33h-8.05l-3.58-13.45h-6Zm11.73-19.88a5,5,0,0,0,3-.94A4.56,4.56,0,0,0,308.32,23c.17-.8.31-1.45.41-2a5.76,5.76,0,0,0,.16-1.17,2.74,2.74,0,0,0-.8-2,3.44,3.44,0,0,0-2.52-.8h-7.79l-1.92,9.71Z"/><path class="cls-1" d="M322.49,10.46h11.64q6.48,0,10.2,3.43T348,24a31.21,31.21,0,0,1-1.24,9,21.23,21.23,0,0,1-3.66,7.19,17,17,0,0,1-6,4.77A18.25,18.25,0,0,1,329,46.7H315.23Zm7.17,29.6a9,9,0,0,0,6-2.13,11.19,11.19,0,0,0,3.38-6.6l1-4.88a17,17,0,0,0,.28-1.87c.05-.58.08-1,.08-1.35,0-2.18-.53-3.74-1.58-4.7a6.11,6.11,0,0,0-4.24-1.42h-5.86l-4.63,23Z"/><path class="cls-1" d="M142.89,66.47h-.31l-5,7-8.05,11L125.7,72.65l-2-6.28h-.26l-4.83,24h-7.17l7.27-36.24h7.89l5.25,17.24H132l12.1-17.24h8.36l-7.27,36.24h-7.17Z"/><path class="cls-1" d="M165,91a14.49,14.49,0,0,1-5-.85,11.17,11.17,0,0,1-4.15-2.65A12.78,12.78,0,0,1,153,83,18.5,18.5,0,0,1,152,76.34a27.27,27.27,0,0,1,1.4-8.83,23.55,23.55,0,0,1,3.89-7.27,18.57,18.57,0,0,1,5.92-4.91,16,16,0,0,1,7.48-1.79,14.49,14.49,0,0,1,5,.86,11.13,11.13,0,0,1,4.15,2.65,12.78,12.78,0,0,1,2.86,4.57,18.5,18.5,0,0,1,1.06,6.62,27.32,27.32,0,0,1-1.4,8.83,23.55,23.55,0,0,1-3.89,7.27,18.65,18.65,0,0,1-5.92,4.9A15.85,15.85,0,0,1,165,91Zm.52-6.64a7.91,7.91,0,0,0,6-2.45,13.6,13.6,0,0,0,3.22-6.89l1.09-5.47c.1-.56.17-1,.21-1.49s0-.84,0-1.22q0-6.68-5.92-6.68a7.91,7.91,0,0,0-6,2.45A13.57,13.57,0,0,0,161,69.52L159.87,75a12.22,12.22,0,0,0-.21,1.46c0,.45,0,.87,0,1.25Q159.61,84.39,165.53,84.39Z"/><path class="cls-1" d="M214.6,66.47h-.31l-5,7-8.05,11-3.84-11.79-2-6.28h-.26l-4.83,24h-7.17l7.27-36.24h7.89l5.25,17.24h.21l12.1-17.24h8.36l-7.27,36.24h-7.17Z"/><path class="cls-1" d="M221.61,90.41l7.27-36.24H252.2l-1.35,6.64H235.11l-1.61,8h13.92l-1.35,6.64H232.15l-1.66,8.36h16.3l-1.35,6.65Z"/><path class="cls-1" d="M263.57,73l-2.18-7.21h-.32l-4.93,24.66H249l7.27-36.24h8.15l5.87,17.44,2.18,7.22h.31l4.93-24.66h7.12l-7.27,36.24h-8.16Z"/><path class="cls-1" d="M303.86,60.81l-5.92,29.6h-7.53l5.92-29.6h-9.55l1.35-6.64h26.64l-1.35,6.64Z"/><path class="cls-1" d="M325.2,54.17l-4.36,21.74c-.1.49-.19,1-.26,1.64a14.35,14.35,0,0,0-.1,1.64c0,3.46,1.76,5.2,5.29,5.2a6.61,6.61,0,0,0,4.94-1.87,11.92,11.92,0,0,0,2.65-5.93l4.51-22.42h7.43l-4.42,22a33.06,33.06,0,0,1-2,6.65,14.49,14.49,0,0,1-3.09,4.62,12.18,12.18,0,0,1-4.42,2.73,17.71,17.71,0,0,1-5.92.9q-6,0-9.11-3c-2.1-2-3.14-4.89-3.14-8.77,0-.69,0-1.41.1-2.16s.19-1.56.36-2.46l4.11-20.51Z"/><path class="cls-1" d="M373.13,66.47h-.31l-5,7-8,11-3.85-11.79-2-6.28h-.26l-4.83,24h-7.17l7.27-36.24h7.9l5.24,17.24h.21l12.1-17.24h8.36l-7.27,36.24H368.3Z"/></g></g></svg>